<?xml version="1.0" standalone="no"?><!DOCTYPE svg PUBLIC "-//W3C//DTD SVG 1.1//EN" "http://www.w3.org/Graphics/SVG/1.1/DTD/svg11.dtd"><svg height="254" legacy-metrics="false" node-id="1" sillyvg="true" template-height="254" template-width="257" version="1.1" viewBox="0 0 257 254" width="257" xmlns="http://www.w3.org/2000/svg" xmlns:xlink="http://www.w3.org/1999/xlink"><defs node-id="65"></defs><g node-id="208"><g node-id="223"><g node-id="224"><path d="M 206.56 20.12 C 176.53 -8.03 129.31 -6.45 101.10 23.65 C 100.66 24.12 100.25 24.61 99.82 25.08 C 74.98 19.65 47.97 27.07 29.29 47.00 C 1.06 77.10 2.54 124.32 32.56 152.47 C 32.96 152.84 33.36 153.18 33.76 153.53 C 27.68 178.76 34.92 206.43 55.17 225.41 C 85.20 253.56 132.42 251.97 160.64 221.87 C 162.24 220.16 163.74 218.39 165.15 216.57 C 186.61 217.90 208.49 209.99 224.36 193.06 C 250.44 165.24 251.13 122.80 227.38 94.31 C 234.49 68.47 227.43 39.69 206.56 20.12 Z" fill="#d4ddfc" fill-opacity="0.63" fill-rule="nonzero" group-id="1,16,17" node-id="70" stroke-linecap="butt" stroke-opacity="0.63" stroke-width="1" target-height="245.44109" target-width="235.4751" target-x="9.081032" target-y="0.042217493"></path></g><path d="M 256.00 169.61 L 0.00 169.61 L 0.00 205.54 C 14.80 233.22 44.03 252.06 77.67 252.06 C 80.43 252.06 83.16 251.91 85.86 251.67 C 86.40 252.31 86.95 252.96 87.50 253.59 L 219.95 253.59 C 231.24 240.71 238.82 224.53 241.03 206.67 C 246.37 203.86 251.38 200.51 256.00 196.71 L 256.00 169.61 Z" fill="#d6f0ff" fill-rule="nonzero" group-id="1,16" node-id="73" stroke="none" target-height="83.983" target-width="256" target-x="0" target-y="169.607"></path><path d="M 1.00 168.11 L 257.00 168.11 L 257.00 171.11 L 1.00 171.11 Z" fill="#ccccde" fill-rule="nonzero" group-id="1,16" node-id="75" stroke="none" target-height="3" target-width="256" target-x="1" target-y="168.107"></path><path d="M 8.00 190.51 L 42.00 190.51 L 42.00 193.51 L 8.00 193.51 Z" fill="#ffffff" fill-rule="nonzero" group-id="1,16" node-id="77" stroke="none" target-height="3" target-width="34" target-x="8" target-y="190.507"></path><path d="M 33.33 218.16 L 79.33 218.16 L 79.33 221.16 L 33.33 221.16 Z" fill="#ffffff" fill-rule="nonzero" group-id="1,16" node-id="79" stroke="none" target-height="3" target-width="46" target-x="33.333" target-y="218.156"></path><path d="M 115.33 186.74 L 154.67 186.74 L 154.67 189.74 L 115.33 189.74 Z" fill="#ffffff" fill-opacity="0.61" fill-rule="nonzero" group-id="1,16,18" node-id="83" stroke-linecap="butt" stroke-opacity="0.61" stroke-width="1" target-height="3" target-width="39.334007" target-x="115.333" target-y="186.736"></path><path d="M 228.00 199.31 L 240.67 199.31 L 240.67 202.31 L 228.00 202.31 Z" fill="#ffffff" fill-rule="nonzero" group-id="1,16" node-id="86" stroke="none" target-height="3" target-width="12.667007" target-x="228" target-y="199.305"></path><path d="M 195.33 191.76 L 205.33 191.76 L 205.33 194.76 L 195.33 194.76 Z" fill="#ffffff" fill-opacity="0.48" fill-rule="nonzero" group-id="1,16,19" node-id="90" stroke-linecap="butt" stroke-opacity="0.48" stroke-width="1" target-height="3" target-width="10" target-x="195.334" target-y="191.764"></path><path d="M 79.33 198.05 L 94.67 198.05 L 94.67 201.05 L 79.33 201.05 Z" fill="#ffffff" fill-opacity="0.48" fill-rule="nonzero" group-id="1,16,20" node-id="95" stroke-linecap="butt" stroke-opacity="0.48" stroke-width="1" target-height="3" target-width="15.334" target-x="79.333" target-y="198.048"></path><path d="M 8.67 228.21 L 14.00 228.21 L 14.00 231.21 L 8.67 231.21 Z" fill="#ffffff" fill-opacity="0.48" fill-rule="nonzero" group-id="1,16,21" node-id="100" stroke-linecap="butt" stroke-opacity="0.48" stroke-width="1" target-height="3" target-width="5.333" target-x="8.667" target-y="228.21"></path><path d="M 1.00 169.61 L 257.00 169.61 L 257.00 177.58 L 1.00 177.58 Z" fill="#6e6e96" fill-opacity="0.1" fill-rule="nonzero" group-id="1,16,22" node-id="105" stroke-linecap="butt" stroke-opacity="0.1" stroke-width="1" target-height="7.973999" target-width="256" target-x="1" target-y="169.607"></path><path d="M 67.00 126.59 L 37.00 126.59 C 35.34 126.59 34.00 125.25 34.00 123.59 C 34.00 121.93 35.34 120.59 37.00 120.59 L 67.00 120.59 C 68.66 120.59 70.00 121.93 70.00 123.59 C 70.00 125.25 68.66 126.59 67.00 126.59 Z" fill="#ffffff" fill-rule="nonzero" group-id="1,16" node-id="108" stroke="none" target-height="6" target-width="36" target-x="34" target-y="120.59"></path><path d="M 213.04 99.59 L 187.00 99.59 C 185.34 99.59 184.00 98.25 184.00 96.59 C 184.00 94.93 185.34 93.59 187.00 93.59 L 213.04 93.59 C 214.70 93.59 216.04 94.93 216.04 96.59 C 216.04 98.25 214.70 99.59 213.04 99.59 Z" fill="#ffffff" fill-opacity="0.55" fill-rule="nonzero" group-id="1,16,23" node-id="112" stroke-linecap="butt" stroke-opacity="0.55" stroke-width="1" target-height="6" target-width="32.044006" target-x="184" target-y="93.59"></path><path d="M 200.88 52.59 L 184.00 52.59 C 182.34 52.59 181.00 51.25 181.00 49.59 C 181.00 47.93 182.34 46.59 184.00 46.59 L 200.88 46.59 C 202.53 46.59 203.88 47.93 203.88 49.59 C 203.88 51.25 202.53 52.59 200.88 52.59 Z" fill="#ffffff" fill-rule="nonzero" group-id="1,16" node-id="115" stroke="none" target-height="6" target-width="22.875" target-x="181" target-y="46.59"></path><path d="M 46.85 86.13 L 43.86 85.98 C 43.86 80.54 36.42 78.79 36.35 78.77 C 35.54 78.59 35.04 77.78 35.22 76.98 C 35.40 76.17 36.21 75.67 37.02 75.85 C 37.32 75.92 42.69 77.19 45.37 81.11 C 46.81 78.53 49.38 76.20 53.64 76.20 C 54.47 76.20 55.14 76.88 55.14 77.70 C 55.14 78.53 54.47 79.20 53.64 79.20 C 47.58 79.20 46.88 85.84 46.85 86.13 Z" fill="#ffffff" fill-rule="nonzero" group-id="1,16" node-id="117" stroke="none" target-height="10.292076" target-width="19.9329" target-x="35.2061" target-y="75.83392"></path><path d="M 48.51 87.09 L 41.81 87.09 C 40.98 87.09 40.31 86.42 40.31 85.59 C 40.31 84.76 40.98 84.09 41.81 84.09 L 48.51 84.09 C 49.34 84.09 50.01 84.76 50.01 85.59 C 50.01 86.42 49.34 87.09 48.51 87.09 Z" fill="#ffffff" fill-rule="nonzero" group-id="1,16" node-id="119" stroke="none" target-height="3" target-width="9.703003" target-x="40.309" target-y="84.09"></path><path d="M 208.74 122.69 L 205.74 122.54 C 205.74 116.94 198.07 115.11 197.99 115.09 C 197.18 114.90 196.68 114.10 196.86 113.29 C 197.05 112.48 197.86 111.98 198.66 112.16 C 198.97 112.23 204.53 113.55 207.26 117.61 C 208.72 114.95 211.37 112.53 215.76 112.53 C 216.58 112.53 217.26 113.20 217.26 114.03 C 217.26 114.86 216.58 115.53 215.76 115.53 C 209.53 115.53 208.77 122.40 208.74 122.69 Z" fill="#ffffff" fill-rule="nonzero" group-id="1,16" node-id="121" stroke="none" target-height="10.541595" target-width="20.4068" target-x="196.8492" target-y="112.14841"></path><path d="M 210.49 123.64 L 203.59 123.64 C 202.77 123.64 202.09 122.97 202.09 122.14 C 202.09 121.31 202.77 120.64 203.59 120.64 L 210.49 120.64 C 211.31 120.64 211.99 121.31 211.99 122.14 C 211.99 122.97 211.31 123.64 210.49 123.64 Z" fill="#ffffff" fill-rule="nonzero" group-id="1,16" node-id="123" stroke="none" target-height="3" target-width="9.890991" target-x="202.095" target-y="120.637"></path></g></g><g node-id="209"><path d="M 145.93 76.23 C 145.93 76.23 176.11 60.15 181.77 66.23 C 187.43 72.31 172.88 85.32 176.02 100.09 C 176.02 100.09 145.93 93.25 145.93 76.23 Z" fill="#b1cfe0" fill-rule="nonzero" group-id="2" node-id="129" stroke="none" target-height="35.226883" target-width="37.121704" target-x="145.932" target-y="64.859116"></path><path d="M 146.81 77.89 L 146.81 77.89 C 160.72 70.49 177.51 64.41 180.39 67.51 C 182.19 69.44 180.80 72.96 178.38 78.54 C 175.73 84.65 172.43 92.25 174.18 100.48 L 176.43 98.25 C 176.15 98.19 147.81 91.55 147.81 76.23 L 146.81 77.89 Z M 177.85 99.70 C 176.35 92.64 179.26 85.95 181.83 80.04 C 184.45 74.00 186.71 68.78 183.14 64.95 C 176.98 58.33 152.42 70.64 145.04 74.58 L 144.05 75.11 L 144.05 76.23 C 144.05 94.54 174.31 101.63 175.60 101.92 L 178.47 102.57 L 177.85 99.70 Z" fill="#6e6e96" fill-rule="nonzero" group-id="2" node-id="131" stroke="none" target-height="39.54034" target-width="40.923553" target-x="144.048" target-y="63.03066"></path></g><path d="M 41.16 134.96 C 41.16 134.96 35.72 123.50 51.18 120.46 C 51.18 120.46 37.80 76.49 97.44 65.74 C 162.13 54.07 211.74 125.58 206.59 194.80 L 190.04 201.35 C 190.04 201.35 190.04 115.32 75.12 136.83 C 75.12 136.83 44.65 146.80 41.16 134.96 Z" fill="#b1cfe0" fill-rule="nonzero" node-id="134" stroke="none" target-height="136.86957" target-width="166.68607" target-x="40.23841" target-y="64.47845"></path><path d="M 42.86 134.15 L 42.87 134.16 C 42.85 134.12 41.22 130.52 42.83 127.36 C 44.08 124.90 47.01 123.19 51.54 122.31 L 53.58 121.91 L 52.97 119.92 C 52.93 119.77 48.48 104.50 57.14 90.38 C 64.22 78.84 77.89 71.17 97.77 67.59 C 121.79 63.26 144.86 70.31 164.48 87.99 C 191.91 112.70 207.70 154.57 204.71 194.66 L 205.89 193.05 L 189.35 199.60 L 191.92 201.35 C 191.92 200.06 191.64 169.73 166.98 149.27 C 146.41 132.19 115.38 127.38 74.77 134.98 L 77.00 136.83 L 77.00 135.87 L 76.22 135.31 L 75.45 134.75 C 75.44 134.75 74.53 135.04 74.53 135.04 C 67.35 137.37 52.05 140.87 45.58 137.46 C 44.21 136.73 43.35 135.74 42.97 134.43 L 42.92 134.29 L 42.86 134.15 Z M 75.46 138.68 C 114.93 131.29 144.91 135.83 164.59 152.16 C 187.90 171.51 188.16 201.05 188.16 201.35 L 188.16 204.11 L 190.73 203.09 L 207.28 196.54 L 208.37 196.11 L 208.46 194.93 C 211.53 153.73 195.25 110.65 166.99 85.19 C 146.48 66.71 122.31 59.34 97.11 63.88 C 76.09 67.67 61.56 75.94 53.91 88.46 C 44.38 104.05 49.17 120.32 49.38 121.00 L 50.81 118.61 C 45.08 119.74 41.25 122.12 39.46 125.69 C 37.03 130.51 39.37 135.55 39.47 135.76 L 39.36 135.48 C 40.04 137.79 41.54 139.56 43.83 140.77 C 53.15 145.69 73.41 139.35 75.69 138.61 L 74.01 138.34 L 73.24 136.82 L 73.24 139.09 L 75.46 138.68 Z" fill="#6e6e96" fill-rule="nonzero" node-id="136" stroke="none" target-height="141.50998" target-width="170.44415" target-x="38.358734" target-y="62.60102"></path><path d="M 175.59 96.44 C 175.17 83.20 186.96 71.80 181.77 66.23 C 178.41 62.62 166.42 66.82 157.22 70.83 L 157.22 70.83 C 157.22 70.83 175.57 59.69 175.57 67.74 C 175.57 71.92 169.67 83.27 168.93 89.74 C 148.23 69.04 123.76 60.99 97.44 65.74 C 37.80 76.49 51.17 120.47 51.17 120.47 C 35.72 123.50 41.16 134.96 41.16 134.96 C 44.65 146.80 75.12 136.83 75.12 136.83 C 165.95 119.83 184.99 170.01 188.98 191.79 C 185.14 168.32 167.54 110.81 87.62 125.76 C 87.62 125.76 58.15 134.51 58.15 129.00 C 58.15 129.00 53.42 119.05 66.84 116.42 C 66.84 116.42 66.40 115.67 65.96 114.39 C 74.67 126.30 118.58 117.95 118.58 117.95 C 175.59 119.60 189.44 180.43 189.44 180.43 L 189.44 180.42 C 189.67 184.60 190.08 192.53 190.08 195.34 C 190.08 199.22 205.97 195.34 205.97 195.34 C 205.97 195.34 207.25 188.03 206.33 176.84 C 206.85 182.03 206.99 187.25 206.73 192.47 C 208.86 155.87 196.94 120.06 175.59 96.44 Z M 66.63 102.37 C 66.90 101.81 67.22 101.24 67.58 100.67 C 67.58 100.68 67.58 100.69 67.58 100.70 C 67.24 101.27 66.92 101.83 66.63 102.37 Z M 95.54 68.02 C 152.00 61.05 180.29 102.63 196.27 140.34 C 208.33 168.83 203.91 197.22 191.88 161.78 C 187.34 147.60 173.80 132.24 157.88 120.56 C 136.07 104.56 108.33 96.60 86.73 102.28 C 81.82 103.36 66.80 109.49 62.91 102.37 C 62.91 102.37 58.91 75.08 95.54 68.02 Z" fill="#8fa7b5" fill-opacity="0.36" fill-rule="nonzero" group-id="3" node-id="140" stroke-linecap="butt" stroke-opacity="0.36" stroke-width="1" target-height="132.61478" target-width="166.7312" target-x="40.237408" target-y="64.429924"></path><path d="M 189.59 196.36 C 193.25 141.27 144.49 113.52 92.55 113.52 C 73.34 113.52 36.37 115.77 40.34 132.68 C 40.59 134.43 41.16 135.66 41.16 135.66 C 44.65 147.51 75.12 137.53 75.12 137.53 C 171.87 119.43 187.17 177.53 189.59 196.36 Z" fill="#f0f0ff" fill-rule="nonzero" group-id="4" node-id="145" stroke="none" target-height="82.842" target-width="149.69412" target-x="40.063274" target-y="113.521"></path><path d="M 191.46 196.49 C 192.89 175.10 186.45 156.12 172.86 141.59 C 155.05 122.56 125.78 111.64 92.55 111.64 C 73.11 111.64 48.31 113.69 40.59 123.43 C 38.36 126.25 37.66 129.50 38.51 133.11 L 38.48 132.94 C 38.75 134.92 39.39 136.31 39.46 136.46 L 39.36 136.19 C 40.04 138.50 41.55 140.28 43.84 141.49 C 53.41 146.52 74.80 139.61 75.70 139.32 L 75.46 139.38 C 112.83 132.39 141.76 136.10 161.45 150.43 C 180.97 164.63 186.29 185.45 187.72 196.60 L 191.46 196.49 Z M 74.53 135.75 L 74.53 135.75 C 68.78 137.63 52.37 141.73 45.59 138.16 C 44.21 137.44 43.35 136.44 42.97 135.13 L 42.93 134.99 L 42.86 134.86 C 42.86 134.86 42.40 133.84 42.20 132.42 L 42.19 132.34 L 42.17 132.25 C 41.59 129.78 42.04 127.66 43.53 125.77 C 48.76 119.18 66.62 115.40 92.55 115.40 C 124.74 115.40 153.01 125.88 170.11 144.16 C 183.16 158.11 189.09 175.63 187.71 196.24 L 191.45 196.12 C 189.94 184.38 184.33 162.42 163.66 147.39 C 143.11 132.43 113.20 128.49 74.77 135.69 L 74.65 135.71 L 74.53 135.75 Z" fill="#6e6e96" fill-rule="nonzero" group-id="4" node-id="147" stroke="none" target-height="84.96001" target-width="153.48476" target-x="38.16365" target-y="111.642"></path><path d="M 189.47 183.59 C 189.45 186.26 189.30 188.99 188.98 191.79 C 187.36 174.28 177.46 114.37 82.57 127.16 C 82.57 127.16 53.19 132.94 50.26 129.49 C 50.26 129.49 49.07 128.33 48.90 126.70 C 48.22 123.35 49.31 120.69 51.62 118.58 C 43.78 121.44 38.74 125.87 40.34 132.68 C 40.59 134.44 41.16 135.66 41.16 135.66 C 44.65 147.51 75.12 137.53 75.12 137.53 C 171.87 119.42 187.17 177.53 189.59 196.36 C 189.88 191.93 189.83 187.67 189.47 183.59 Z" fill="#6e6e96" fill-opacity="0.15" fill-rule="nonzero" group-id="5" node-id="152" stroke-linecap="butt" stroke-opacity="0.15" stroke-width="1" target-height="77.783" target-width="149.7226" target-x="40.05243" target-y="118.577"></path><path d="M 102.28 129.35 C 102.28 129.35 101.85 148.98 137.11 154.59 C 137.11 154.59 147.97 155.50 140.16 147.11 C 132.35 138.73 131.89 133.09 116.22 128.41 C 100.54 123.73 102.28 129.35 102.28 129.35 Z" fill="#b1cfe0" fill-rule="nonzero" group-id="6" node-id="157" stroke="none" target-height="28.032867" target-width="40.674133" target-x="102.25784" target-y="126.58609"></path><path d="M 100.41 129.31 C 100.39 130.17 100.35 150.65 136.82 156.45 L 136.88 156.46 L 136.95 156.47 C 137.95 156.55 142.97 156.81 144.47 153.71 C 145.98 150.61 142.63 147.02 141.53 145.83 C 139.67 143.83 138.25 142.01 136.87 140.24 C 132.56 134.69 129.14 130.31 116.75 126.61 C 108.49 124.15 103.62 124.03 101.43 126.25 C 100.27 127.43 100.19 128.96 100.49 129.91 L 100.41 129.31 Z M 115.68 130.21 C 126.92 133.56 129.85 137.33 133.91 142.55 C 135.26 144.29 136.80 146.27 138.78 148.39 C 141.28 151.08 141.10 152.06 141.09 152.07 L 141.10 152.07 C 140.87 152.47 138.97 152.86 137.26 152.72 L 137.41 152.74 C 104.15 147.44 104.16 129.57 104.16 129.39 L 104.17 129.08 L 104.08 128.79 C 104.10 128.86 104.11 128.89 104.11 128.89 C 104.11 128.88 104.11 128.88 104.11 128.87 C 104.11 128.88 104.10 128.89 104.10 128.89 C 104.11 128.88 105.63 127.22 115.68 130.21 Z" fill="#6e6e96" fill-rule="nonzero" group-id="6" node-id="159" stroke="none" target-height="31.802803" target-width="44.50699" target-x="100.349365" target-y="124.676"></path><path d="M 138.02 146.26 C 134.45 142.43 132.60 139.24 129.76 136.48 C 129.96 136.77 130.16 137.06 130.38 137.36 C 135.76 144.84 128.28 144.03 128.28 144.03 C 113.87 141.06 108.11 133.72 105.80 128.22 C 103.79 128.87 104.27 130.43 104.27 130.43 C 104.27 130.43 103.88 147.93 135.30 152.93 C 135.31 152.93 144.98 153.73 138.02 146.26 Z" fill="#8fa7b5" fill-opacity="0.35" fill-rule="nonzero" group-id="7" node-id="164" stroke-linecap="butt" stroke-opacity="0.35" stroke-width="1" target-height="24.732956" target-width="36.27379" target-x="104.21867" target-y="128.219"></path><path d="M 191.54 188.55 C 191.54 188.55 174.06 189.02 171.53 203.04 C 169.00 216.96 192.51 201.44 206.97 222.29 C 216.03 235.35 220.08 186.53 191.54 188.55 Z" fill="#b1cfe0" fill-rule="nonzero" group-id="8" node-id="169" stroke="none" target-height="35.93512" target-width="42.33557" target-x="171.35258" target-y="188.54926"></path><path d="M 191.49 186.68 C 184.92 186.85 171.90 190.43 169.68 202.71 C 169.19 205.39 169.53 207.41 170.69 208.89 C 172.67 211.39 176.29 211.58 180.87 211.83 C 188.13 212.22 198.08 212.76 205.43 223.36 C 207.93 226.96 210.27 226.60 211.44 226.06 C 215.82 224.07 216.52 213.45 214.42 205.17 C 211.21 192.61 202.83 185.87 191.49 186.68 Z M 208.52 221.22 C 200.12 209.11 188.66 208.49 181.07 208.08 C 177.72 207.90 174.56 207.73 173.64 206.56 C 173.19 205.99 173.10 204.91 173.37 203.38 C 175.61 191.00 191.43 190.44 191.59 190.43 C 205.37 189.45 209.69 201.47 210.91 206.69 C 212.91 215.21 211.14 222.12 209.88 222.64 C 209.89 222.64 209.93 222.63 209.94 222.63 C 209.94 222.63 209.42 222.52 208.52 221.22 Z" fill="#6e6e96" fill-rule="nonzero" group-id="8" node-id="171" stroke="none" target-height="39.72397" target-width="46.083786" target-x="169.47118" target-y="186.676"></path><path d="M 202.60 193.49 C 208.18 198.73 208.88 208.03 202.81 208.03 C 200.94 208.03 199.06 207.67 197.24 205.98 C 195.93 204.78 194.64 200.29 193.40 200.19 C 191.13 200.02 188.99 204.29 187.12 205.11 C 182.88 206.97 179.96 206.07 179.71 201.93 C 179.25 194.18 187.65 191.25 189.01 190.83 C 184.52 191.52 175.20 194.09 173.49 203.57 C 171.23 216.04 192.29 202.12 205.26 220.81 C 211.90 230.41 215.54 202.81 202.60 193.49 Z" fill="#8fa7b5" fill-opacity="0.35" fill-rule="nonzero" group-id="9" node-id="176" stroke-linecap="butt" stroke-opacity="0.35" stroke-width="1" target-height="31.936829" target-width="37.937775" target-x="173.33372" target-y="190.832"></path><path d="M 76.98 95.95 C 76.98 98.33 75.05 100.25 72.67 100.25 C 70.30 100.25 68.37 98.33 68.37 95.95 C 68.37 93.57 70.30 91.64 72.67 91.64 C 75.05 91.64 76.98 93.57 76.98 95.95 Z" fill="#6e6e96" fill-rule="nonzero" group-id="10" node-id="181" stroke="none" target-height="8.608002" target-width="8.607994" target-x="68.369" target-y="91.645"></path><path d="M 138.53 190.24 C 140.42 193.35 139.62 195.00 138.00 195.99 C 136.38 196.97 134.55 196.92 132.66 193.81 C 130.76 190.70 129.27 185.29 130.89 184.30 C 132.51 183.31 136.63 187.12 138.53 190.24 Z" fill="#61a7d9" fill-rule="nonzero" group-id="11" node-id="186" stroke="none" target-height="12.334473" target-width="9.411728" target-x="130.20549" target-y="184.1681"></path><path d="M 153.98 168.21 C 155.10 170.05 154.75 170.96 153.92 171.46 C 153.11 171.95 152.13 171.85 151.01 170.01 C 149.89 168.17 148.90 165.03 149.71 164.54 C 150.53 164.04 152.85 166.36 153.98 168.21 Z" fill="#61a7d9" fill-opacity="0.51" fill-rule="nonzero" group-id="12" node-id="191" stroke-linecap="butt" stroke-opacity="0.51" stroke-width="1" target-height="7.204117" target-width="5.2421265" target-x="149.43762" target-y="164.49362"></path><path d="M 203.05 94.49 C 204.66 95.53 204.39 96.92 203.52 98.28 C 202.64 99.64 201.49 100.46 199.88 99.42 C 198.27 98.39 196.59 95.75 197.47 94.39 C 198.35 93.02 201.44 93.46 203.05 94.49 Z" fill="#61a7d9" fill-opacity="0.31" fill-rule="nonzero" group-id="13" node-id="196" stroke-linecap="butt" stroke-opacity="0.31" stroke-width="1" target-height="6.342247" target-width="6.982376" target-x="197.23438" target-y="93.539375"></path><path d="M 215.31 134.44 C 216.43 136.29 216.08 137.20 215.26 137.69 C 214.44 138.19 213.47 138.09 212.35 136.25 C 211.23 134.41 210.23 131.28 211.05 130.78 C 211.87 130.28 214.19 132.60 215.31 134.44 Z" fill="#61a7d9" fill-opacity="0.51" fill-rule="nonzero" group-id="14" node-id="201" stroke-linecap="butt" stroke-opacity="0.51" stroke-width="1" target-height="7.205017" target-width="5.2424927" target-x="210.77063" target-y="130.7337"></path><path d="M 105.49 159.31 C 106.55 161.04 105.88 162.12 104.68 162.84 C 103.49 163.56 102.24 163.67 101.18 161.93 C 100.12 160.19 99.51 157.02 100.70 156.30 C 101.90 155.57 104.43 157.56 105.49 159.31 Z" fill="#61a7d9" fill-opacity="0.51" fill-rule="nonzero" group-id="15" node-id="206" stroke-linecap="butt" stroke-opacity="0.51" stroke-width="1" target-height="7.1627655" target-width="5.9316864" target-x="100.06274" target-y="156.14711"></path></svg>